<svg xmlns="http://www.w3.org/2000/svg" viewBox="0.062 0 108.938 34.946000000000005">
  <path d="M 17.714 31.681 l -1.576 -4.09 l 15.219 0.79 l -0.684 6.545 l -12.96 -3.245 Z M 21.36 0 L 0.062 10.143 l 3.293 15.284 H 7.7 l -0.75 -10.932 l 0.667 -0.21 l 2.612 11.142 h 4.513 l -0.167 -13.317 l 0.667 -0.21 l 2.282 13.527 h 4.78 L 23.43 9.341 l 0.667 -0.21 l 1.181 16.296 h 6.32 l 2.224 -22.37 L 21.359 0 Z m 84.102 31.125 l -6.06 -1.035 l 0.027 -0.8 l 5.799 -0.216 l -0.148 -1.527 h -7.455 l -0.382 3.834 l 6.162 1.08 l 0.029 0.706 l -6.412 0.252 l -0.158 1.527 h 8.974 l -0.376 -3.82 Z m -57.895 -0.572 l -0.093 1.384 l 2.208 0.075 l -0.029 1.404 l -4.618 -0.136 l 0.202 -4.06 l 6.352 -0.15 l -0.093 -1.526 h -8.204 l -0.735 7.4 h 9.346 l -0.24 -4.463 l -4.096 0.072 Z m 39.566 2.717 l -0.045 -1.274 l 4.372 -0.052 l 0.041 -1.391 l -4.464 -0.055 l -0.045 -1.291 l 5.883 -0.14 l 0.048 -1.523 h -7.934 l -0.237 7.4 h 8.319 l -0.058 -1.528 l -5.88 -0.146 Z m -6.406 1.673 l -0.735 -7.4 h -2.111 l -3.037 3.527 l -3.032 -3.526 H 69.7 l -0.735 7.4 h 2.48 l 0.238 -4.799 l 3.161 3.271 l 3.165 -3.271 l 0.237 4.798 h 2.481 Z M 70.3 0.454 h -4.965 l -0.453 22.877 h 5.998 L 70.3 0.454 Z m 20.188 0.008 h -15.48 l -0.602 22.868 h 17.183 L 90.488 0.462 Z m -4.801 17.892 l -5.479 0.178 l -0.183 -13.457 l 5.729 0.175 l -0.067 13.104 Z M 109 5.459 l -0.552 -5.005 H 93.194 l 0.128 4.458 l 4.882 0.172 l 0.497 18.247 h 6.011 L 102.915 5.25 l 6.085 0.21 Z M 55.624 23.331 h 6.515 l -4.246 -10.269 l 3.389 -1.867 L 58.965 0.454 H 42.33 l -0.545 4.956 l 3.72 -0.126 l -1.795 18.047 h 5.822 l 0.157 -5.752 l 4.195 -2.31 l 1.74 8.062 Z M 50.033 5.132 l 4.785 -0.162 l 0.546 4.559 l -5.524 2.63 l 0.193 -7.027 Z m 12.908 29.811 h 2.513 l -1.986 -7.4 h -5.896 l -1.986 7.4 h 2.513 l 0.388 -1.867 l 4.079 0.052 l 0.375 1.815 Z m -4.15 -3.336 l 0.505 -2.42 l 2.423 -0.11 l 0.507 2.43 l -3.434 0.1 Z" fill="#ffffff"/>
</svg>